<?xml version="1.0" encoding="UTF-8"?>
<svg xmlns="http://www.w3.org/2000/svg" width="1024" height="1024" viewBox="0 0 1024 1024" role="img" aria-label="MELE DATA clean icon">
  <defs>
    <linearGradient id="blueMain" x1="242" y1="258" x2="790" y2="760" gradientUnits="userSpaceOnUse">
      <stop offset="0" stop-color="#38a9ff"/>
      <stop offset="0.48" stop-color="#1677f2"/>
      <stop offset="1" stop-color="#062d99"/>
    </linearGradient>
    <linearGradient id="blueDeep" x1="250" y1="720" x2="735" y2="300" gradientUnits="userSpaceOnUse">
      <stop offset="0" stop-color="#062c97"/>
      <stop offset="0.52" stop-color="#0c52ca"/>
      <stop offset="1" stop-color="#2296ff"/>
    </linearGradient>
    <linearGradient id="blueLight" x1="315" y1="230" x2="720" y2="545" gradientUnits="userSpaceOnUse">
      <stop offset="0" stop-color="#47b7ff"/>
      <stop offset="0.58" stop-color="#1f86ff"/>
      <stop offset="1" stop-color="#0a4fca"/>
    </linearGradient>
    <linearGradient id="crease" x1="300" y1="730" x2="700" y2="300" gradientUnits="userSpaceOnUse">
      <stop offset="0" stop-color="#031f77"/>
      <stop offset="1" stop-color="#0f6af1"/>
    </linearGradient>
    <filter id="smallShadow" x="-18%" y="-18%" width="136%" height="136%">
      <feDropShadow dx="0" dy="10" stdDeviation="8" flood-color="#061a4a" flood-opacity="0.22"/>
    </filter>
  </defs>

  <!-- Clean transparent vector logo mark without white tile or outer drop shadow -->
  <g>
    <!-- M: folded MELE initial -->
    <path
      d="M232 714
         L232 346
         Q232 326 252 326
         L318 326
         Q333 326 342 340
         L512 596
         L682 340
         Q691 326 706 326
         L772 326
         Q792 326 792 346
         L792 714
         Q792 734 772 734
         L706 734
         Q686 734 686 714
         L686 510
         L554 710
         Q542 728 512 728
         Q482 728 470 710
         L338 510
         L338 714
         Q338 734 318 734
         L252 734
         Q232 734 232 714 Z"
      fill="url(#blueMain)"/>

    <!-- D: carved right body that makes the monogram read MD -->
    <path
      d="M604 734
         L604 326
         L710 326
         Q811 326 870 384
         Q930 442 930 530
         Q930 618 870 676
         Q811 734 710 734 Z
         M710 626
         Q766 626 796 600
         Q826 574 826 530
         Q826 486 796 460
         Q766 434 710 434
         L710 626 Z"
      fill="url(#blueDeep)"/>

    <!-- Blue folded paper planes across the MD -->
    <path
      d="M282 676
         L472 384
         Q490 356 522 356
         L686 356
         Q707 356 713 371
         Q719 386 704 405
         L506 642
         Q468 688 410 700
         L286 724
         Q262 729 254 714
         Q248 702 282 676 Z"
      fill="url(#blueLight)" opacity="0.98"/>
    <path
      d="M282 676
         C390 610 491 548 704 405
         L506 642
         Q468 688 410 700
         L286 724
         Q262 729 254 714
         Q248 702 282 676 Z"
      fill="url(#crease)" opacity="0.78"/>

    <!-- Center data arrow -->
    <g filter="url(#smallShadow)">
      <path
        d="M512 574
           Q522 574 529 586
           L620 746
           Q631 766 611 778
           L526 728
           Q512 720 498 728
           L413 778
           Q393 766 404 746
           L495 586
           Q502 574 512 574 Z"
        fill="#ffffff" opacity="0.96"/>
      <path
        d="M512 612
           L590 754
           L512 710
           L434 754 Z"
        fill="url(#blueMain)"/>
      <path d="M512 612 L512 710 L434 754 Z" fill="#2296ff"/>
      <path d="M512 612 L590 754 L512 710 Z" fill="#062d99"/>
    </g>
  </g>
</svg>
